<?xml version="1.0" standalone="no"?>
<!DOCTYPE svg PUBLIC "-//W3C//DTD SVG 20010904//EN"
 "http://www.w3.org/TR/2001/REC-SVG-20010904/DTD/svg10.dtd">
<svg version="1.0" xmlns="http://www.w3.org/2000/svg"
 width="500.000000pt" height="500.000000pt" viewBox="0 0 500.000000 500.000000"
 preserveAspectRatio="xMidYMid meet">
<metadata>
Created by potrace 1.11, written by Peter Selinger 2001-2013
</metadata>
<g transform="translate(0.000000,500.000000) scale(0.100000,-0.100000)"
fill="#000000" stroke="none">
<path d="M2279 4996 c-2 -2 -33 -7 -69 -10 -202 -21 -499 -101 -708 -192 -652
-283 -1161 -841 -1378 -1511 -34 -107 -68 -230 -78 -288 -3 -16 -10 -57 -15
-90 -22 -120 -26 -184 -26 -395 0 -253 9 -356 44 -510 5 -25 12 -57 14 -71 10
-54 51 -188 89 -293 173 -472 457 -845 893 -1174 50 -38 200 -130 285 -175
100 -53 285 -135 319 -142 9 -2 30 -9 46 -15 17 -6 37 -13 45 -15 8 -2 36 -10
62 -19 26 -9 67 -21 92 -26 25 -6 67 -15 94 -20 26 -6 61 -13 77 -15 17 -3 41
-7 55 -10 75 -15 168 -20 375 -20 264 0 373 10 540 49 164 38 253 65 395 122
466 185 869 513 1155 939 75 113 176 297 215 395 12 30 29 70 37 88 39 88 115
367 129 472 2 14 10 66 18 115 11 67 13 154 11 340 -4 280 -5 291 -44 477 -51
243 -103 393 -212 614 -180 366 -454 685 -799 931 -47 33 -98 68 -115 77 -16
9 -52 30 -80 47 -240 144 -590 265 -880 305 -27 3 -59 9 -70 11 -24 6 -510 14
-516 9z"/>
</g>
</svg>
