<svg viewBox="0 0 402.97 290.05" xmlns="http://www.w3.org/2000/svg"><path d="m378.32-21.74h-353.67a46.44 46.44 0 0 0 -46.39 46.39v240.75a46.44 46.44 0 0 0 46.39 46.39h353.67a46.44 46.44 0 0 0 46.39-46.39v-240.75a46.44 46.44 0 0 0 -46.39-46.39z" fill="#e5f2f2"/><path d="m378.32-21.74h-353.67a46.44 46.44 0 0 0 -46.39 46.39v240.75a46.44 46.44 0 0 0 46.39 46.39h353.67a46.44 46.44 0 0 0 46.39-46.39v-240.75a46.44 46.44 0 0 0 -46.39-46.39zm-353.67 21.74h353.67a24.6 24.6 0 0 1 20.75 11.47l-178.39 156.26-.53.5a26.44 26.44 0 0 1 -37.34 0c-.17-.17-.34-.34-.52-.5l-178.39-156.26a24.6 24.6 0 0 1 20.75-11.47zm353.67 290.05h-353.67a24.68 24.68 0 0 1 -24.65-24.65v-228.4l167.71 146.87a48.21 48.21 0 0 0 67.55 0l167.74-146.87v228.4a24.68 24.68 0 0 1 -24.68 24.65z" fill="#fffef2"/></svg>