<svg id="_ÎÓÈ_1" data-name="—ÎÓÈ_1" xmlns="http://www.w3.org/2000/svg" viewBox="0 0 446.46 333.54"><defs><style>.cls-1{fill:#e5f2f2;}.cls-2{fill:#fffef2;}</style></defs><title>email</title><path class="cls-1" d="M400.07,0H46.39A46.44,46.44,0,0,0,0,46.4V287.15a46.44,46.44,0,0,0,46.39,46.39H400.07a46.44,46.44,0,0,0,46.39-46.39V46.4A46.44,46.44,0,0,0,400.07,0Z"/><path class="cls-2" d="M400.07,0H46.39A46.44,46.44,0,0,0,0,46.4V287.15a46.44,46.44,0,0,0,46.39,46.39H400.07a46.44,46.44,0,0,0,46.39-46.39V46.4A46.44,46.44,0,0,0,400.07,0ZM46.39,21.74H400.07a24.6,24.6,0,0,1,20.75,11.47L242.42,189.48c-.17.15-.35.32-.52.49a26.44,26.44,0,0,1-37.34,0c-.17-.17-.34-.34-.52-.49L25.64,33.21A24.6,24.6,0,0,1,46.39,21.74ZM400.07,311.79H46.39a24.67,24.67,0,0,1-24.65-24.64V58.71L189.46,205.62a48.22,48.22,0,0,0,67.54,0L424.71,58.71V287.15A24.66,24.66,0,0,1,400.07,311.79Z"/></svg>